<svg width="148" height="40" viewBox="0 0 148 40" fill="none" xmlns="http://www.w3.org/2000/svg">
<g clip-path="url(#clip0)">
<path d="M23.2037 17.8696C23.2037 20.6896 26.6219 22.9764 30.8376 22.9764C31.5951 22.9764 32.3249 22.9014 33.0149 22.7641C35.1002 24.9976 38.0346 24.8244 38.0346 24.8244C38.4734 24.4633 38.0346 24.1674 38.0346 24.1674C36.517 23.3533 35.9185 22.4889 35.7104 21.8008C37.3975 20.8644 38.4734 19.4506 38.4734 17.8693C38.4734 15.0489 35.0545 12.7625 30.838 12.7625C26.6219 12.7625 23.2037 15.0485 23.2037 17.8696" fill="#9B59B6"/>
<path d="M25.7001 19.9753C21.4836 19.9753 18.0644 22.2624 18.0644 25.082C18.0644 26.6638 19.1403 28.0772 20.8278 29.0135C20.6193 29.702 20.0208 30.5668 18.5035 31.3805C18.5035 31.3805 18.0648 31.6753 18.5035 32.0364C18.5035 32.0364 21.4379 32.2097 23.5233 29.9769C24.2129 30.1142 24.9426 30.1892 25.7005 30.1892C29.9163 30.1892 33.3344 27.902 33.3344 25.0828C33.3344 22.262 29.9159 19.9753 25.7001 19.9753" fill="#D80073"/>
<path d="M22.1354 7.91077C17.9185 7.91077 14.5 10.1968 14.5 13.0171C14.5 14.5989 15.5759 16.0119 17.2634 16.9483C17.0549 17.6368 16.4564 18.5011 14.9387 19.3153C14.9387 19.3153 14.5004 19.6104 14.9387 19.9715C14.9387 19.9715 17.8735 20.1448 19.9589 17.9116C20.6758 18.0535 21.4049 18.1246 22.1357 18.1239C26.3515 18.1239 29.7696 15.8371 29.7696 13.0171C29.7693 10.1968 26.3511 7.91077 22.1354 7.91077Z" fill="#2ECC71"/>
</g>
<path d="M58.716 16.112C58.716 16.8 58.748 17.472 58.812 18.128C58.892 18.768 59.012 19.672 59.172 20.84C59.476 22.808 59.628 24.376 59.628 25.544C59.628 25.784 59.58 25.928 59.484 25.976C59.388 26.024 59.276 26.048 59.148 26.048C59.02 26.048 58.932 26.048 58.884 26.048C58.66 26.048 58.484 26.024 58.356 25.976C58.228 25.912 58.124 25.768 58.044 25.544L57.54 19.016C57.492 18.36 57.428 17.04 57.348 15.056C56.66 15.856 55.98 16.464 55.308 16.88C54.636 17.28 53.948 17.48 53.244 17.48C52.236 17.48 51.228 16.768 50.22 15.344C50.268 15.584 50.292 15.904 50.292 16.304C50.292 16.704 50.292 16.936 50.292 17L50.268 24.848C50.268 25.008 50.18 25.136 50.004 25.232C49.844 25.312 49.676 25.352 49.5 25.352C49.276 25.352 49.116 25.272 49.02 25.112C48.94 24.936 48.876 24.704 48.828 24.416V21.056C48.828 20.544 48.844 19.968 48.876 19.328C48.908 18.688 48.932 18.24 48.948 17.984C49.028 16.864 49.068 15.848 49.068 14.936C49.068 14.664 49.02 14.408 48.924 14.168C48.828 13.912 48.684 13.632 48.492 13.328C48.3 13.024 48.156 12.76 48.06 12.536C47.98 12.312 47.94 12.072 47.94 11.816C47.94 11.512 48.092 11.36 48.396 11.36C48.876 11.36 49.268 11.536 49.572 11.888C49.876 12.224 50.204 12.736 50.556 13.424C50.86 13.984 51.124 14.424 51.348 14.744C51.572 15.064 51.86 15.344 52.212 15.584C52.564 15.808 52.988 15.92 53.484 15.92C54.204 15.952 54.796 15.816 55.26 15.512C55.724 15.192 56.076 14.808 56.316 14.36C56.556 13.912 56.788 13.368 57.012 12.728C57.204 12.2 57.372 11.832 57.516 11.624C57.66 11.4 57.836 11.312 58.044 11.36C58.524 11.328 58.764 11.768 58.764 12.68C58.764 13.448 58.756 14.016 58.74 14.384L58.716 16.112ZM63.6461 26.024C63.2781 26.024 62.9821 25.488 62.7581 24.416C62.5341 23.328 62.3901 22.392 62.3261 21.608C62.2621 20.824 62.1741 19.584 62.0621 17.888C62.0461 17.616 62.0381 17.264 62.0381 16.832C62.0381 16.288 62.0781 15.912 62.1581 15.704C62.2541 15.496 62.4061 15.392 62.6141 15.392C62.7901 15.392 62.9261 15.432 63.0221 15.512C63.1341 15.576 63.2301 15.688 63.3101 15.848L63.2861 16.808C63.2861 17.832 63.3341 18.8 63.4301 19.712C63.5421 20.624 63.7101 21.848 63.9341 23.384C64.0621 24.056 64.1501 24.608 64.1981 25.04C64.2301 25.264 64.1901 25.488 64.0781 25.712C63.9661 25.92 63.8221 26.024 63.6461 26.024ZM63.0461 12.824C62.6941 12.824 62.4301 12.688 62.2541 12.416C62.0941 12.144 62.0141 11.808 62.0141 11.408C62.0141 11.232 62.0221 11.104 62.0381 11.024C62.0221 10.768 62.1661 10.64 62.4701 10.64C62.6941 10.64 62.9181 10.696 63.1421 10.808C63.3821 10.904 63.4541 10.976 63.3581 11.024C63.5181 11.44 63.5981 11.768 63.5981 12.008C63.5981 12.216 63.5501 12.384 63.4541 12.512C63.3581 12.624 63.2221 12.728 63.0461 12.824ZM69.3746 26C69.1666 26.08 68.9666 26.032 68.7746 25.856C68.5986 25.68 68.5026 25.432 68.4866 25.112C68.4226 24.648 68.3506 24.08 68.2706 23.408C68.2066 22.736 68.1586 22.24 68.1266 21.92C68.0946 21.6 68.0226 20.984 67.9106 20.072C67.8146 19.144 67.7106 18.344 67.5986 17.672C67.5666 17.448 67.4626 17.048 67.2866 16.472C66.8226 14.824 66.5906 13.632 66.5906 12.896C66.7026 12.736 66.8146 12.656 66.9266 12.656C67.3426 12.656 67.7746 13.488 68.2226 15.152C68.6706 16.816 69.0466 18.696 69.3506 20.792C69.6706 22.872 69.8306 24.296 69.8306 25.064C69.8306 25.096 69.8306 25.2 69.8306 25.376C69.8306 25.536 69.7906 25.672 69.7106 25.784C69.6466 25.896 69.5346 25.968 69.3746 26ZM76.1031 25.976C75.3511 25.976 74.6951 25.72 74.1351 25.208C73.5911 24.696 73.1751 24.032 72.8871 23.216C72.6151 22.4 72.4791 21.552 72.4791 20.672C72.4791 19.136 72.7991 17.84 73.4391 16.784C74.0951 15.728 75.0871 15.2 76.4151 15.2C77.2151 15.2 77.9111 15.344 78.5031 15.632C79.1111 15.904 79.9031 16.368 80.8791 17.024L81.5031 17.456C81.4231 16.928 81.3031 16.32 81.1431 15.632C80.9831 14.944 80.8791 14.472 80.8311 14.216C80.5591 12.968 80.3591 12.04 80.2311 11.432C80.1191 10.808 80.0631 10.256 80.0631 9.776C80.0631 8.928 80.3031 8.504 80.7831 8.504C80.9591 8.888 81.1671 9.712 81.4071 10.976C81.6471 12.224 81.9511 13.936 82.3191 16.112C82.7031 18.416 83.0391 20.296 83.3271 21.752C83.6151 23.208 83.8551 24.12 84.0471 24.488C84.0471 24.856 83.7751 25.04 83.2311 25.04C82.8151 25.04 82.5271 24.8 82.3671 24.32C82.2231 23.84 82.1351 23 82.1031 21.8H81.9111C81.2391 23.016 80.3671 24.016 79.2951 24.8C78.2231 25.584 77.1591 25.976 76.1031 25.976ZM76.4151 24.8C77.0711 24.8 77.7751 24.528 78.5271 23.984C79.2951 23.424 79.9431 22.752 80.4711 21.968C80.9991 21.168 81.2631 20.448 81.2631 19.808V19.088C79.6151 17.36 78.0951 16.496 76.7031 16.496C75.7271 16.496 74.9751 16.856 74.4471 17.576C73.9191 18.28 73.6551 19.208 73.6551 20.36L73.6791 20.864C73.7751 22.08 74.0471 23.04 74.4951 23.744C74.9431 24.448 75.5831 24.8 76.4151 24.8ZM87.0836 26.024C86.7156 26.024 86.4196 25.488 86.1956 24.416C85.9716 23.328 85.8276 22.392 85.7636 21.608C85.6996 20.824 85.6116 19.584 85.4996 17.888C85.4836 17.616 85.4756 17.264 85.4756 16.832C85.4756 16.288 85.5156 15.912 85.5956 15.704C85.6916 15.496 85.8436 15.392 86.0516 15.392C86.2276 15.392 86.3636 15.432 86.4596 15.512C86.5716 15.576 86.6676 15.688 86.7476 15.848L86.7236 16.808C86.7236 17.832 86.7716 18.8 86.8676 19.712C86.9796 20.624 87.1476 21.848 87.3716 23.384C87.4996 24.056 87.5876 24.608 87.6356 25.04C87.6676 25.264 87.6276 25.488 87.5156 25.712C87.4036 25.92 87.2596 26.024 87.0836 26.024ZM86.4836 12.824C86.1316 12.824 85.8676 12.688 85.6916 12.416C85.5316 12.144 85.4516 11.808 85.4516 11.408C85.4516 11.232 85.4596 11.104 85.4756 11.024C85.4596 10.768 85.6036 10.64 85.9076 10.64C86.1316 10.64 86.3556 10.696 86.5796 10.808C86.8196 10.904 86.8916 10.976 86.7956 11.024C86.9556 11.44 87.0356 11.768 87.0356 12.008C87.0356 12.216 86.9876 12.384 86.8916 12.512C86.7956 12.624 86.6596 12.728 86.4836 12.824ZM94.7561 26.024C93.8121 26.024 92.9561 25.816 92.1881 25.4C91.4361 24.968 90.8441 24.376 90.4121 23.624C89.9961 22.856 89.7881 21.984 89.7881 21.008C89.7881 19.408 90.3721 18.216 91.5401 17.432C92.7241 16.648 94.1721 16.256 95.8841 16.256C96.6681 16.256 97.3961 16.448 98.0681 16.832C98.7561 17.216 99.3081 17.768 99.7241 18.488C100.14 19.208 100.348 20.04 100.348 20.984C100.348 22.008 100.084 22.904 99.5561 23.672C99.0281 24.424 98.3321 25.008 97.4681 25.424C96.6201 25.824 95.7161 26.024 94.7561 26.024ZM94.4921 24.656C95.9801 24.656 97.1081 24.32 97.8761 23.648C98.6441 22.976 99.0281 21.992 99.0281 20.696C99.0281 19.816 98.7241 19.056 98.1161 18.416C97.5241 17.776 96.6921 17.456 95.6201 17.456C94.9001 17.456 94.1721 17.592 93.4361 17.864C92.7001 18.136 92.0921 18.544 91.6121 19.088C91.1321 19.632 90.8921 20.288 90.8921 21.056C90.8921 21.696 91.0521 22.296 91.3721 22.856C91.6921 23.4 92.1241 23.84 92.6681 24.176C93.2281 24.496 93.8361 24.656 94.4921 24.656ZM117.833 26.024C117.593 26.024 117.449 25.96 117.401 25.832C117.353 25.688 117.329 25.472 117.329 25.184C117.345 25.072 117.353 24.944 117.353 24.8C117.353 24.64 117.361 24.52 117.377 24.44C117.473 23.672 117.521 22.944 117.521 22.256C117.521 20.736 117.265 19.552 116.753 18.704C116.241 17.84 115.433 17.408 114.329 17.408C113.721 17.408 113.113 17.56 112.505 17.864C111.913 18.168 111.425 18.544 111.041 18.992C110.673 19.44 110.489 19.848 110.489 20.216C110.569 20.68 110.713 21.248 110.921 21.92C110.937 22 111.001 22.248 111.113 22.664C111.241 23.08 111.305 23.456 111.305 23.792L111.329 24.248C111.329 24.504 111.201 24.632 110.945 24.632C110.625 24.632 110.361 24.424 110.153 24.008C109.961 23.592 109.745 22.944 109.505 22.064C109.265 21.2 109.033 20.488 108.809 19.928C108.585 19.368 108.281 18.888 107.897 18.488C107.513 18.088 107.025 17.888 106.433 17.888C105.617 17.888 104.977 18.168 104.513 18.728C104.065 19.288 103.841 19.976 103.841 20.792C103.841 21.336 103.889 22.056 103.985 22.952C104.065 23.624 104.105 24.2 104.105 24.68C104.105 24.968 104.073 25.184 104.009 25.328C103.945 25.472 103.793 25.544 103.553 25.544C103.233 25.544 103.009 25.44 102.881 25.232C102.753 25.008 102.689 24.672 102.689 24.224C102.689 23.344 102.641 22.28 102.545 21.032C102.529 20.872 102.497 20.464 102.449 19.808C102.401 19.136 102.393 18.464 102.425 17.792L102.449 17C102.545 16.904 102.657 16.856 102.785 16.856C102.961 16.856 103.105 16.968 103.217 17.192C103.345 17.4 103.409 17.72 103.409 18.152C103.649 17.736 104.001 17.36 104.465 17.024C104.929 16.688 105.417 16.52 105.929 16.52C106.809 16.52 107.537 16.704 108.113 17.072C108.705 17.424 109.241 18 109.721 18.8C110.169 17.984 110.841 17.288 111.737 16.712C112.649 16.136 113.585 15.848 114.545 15.848C115.537 15.848 116.361 16.224 117.017 16.976C117.689 17.728 118.177 18.632 118.481 19.688C118.801 20.744 118.961 21.72 118.961 22.616C118.961 23.416 118.889 24.184 118.745 24.92C118.617 25.656 118.313 26.024 117.833 26.024ZM127.058 26C125.394 26 123.946 25.712 122.714 25.136C121.498 24.544 120.89 23.512 120.89 22.04C120.89 21.512 121.05 21 121.37 20.504C121.69 20.008 122.162 19.608 122.786 19.304C123.41 18.984 124.17 18.824 125.066 18.824C125.754 18.824 126.338 18.856 126.818 18.92C127.298 18.984 127.85 19.16 128.474 19.448C129.098 19.736 129.746 20.192 130.418 20.816C130.162 19.712 129.778 18.744 129.266 17.912C128.754 17.08 128.178 16.44 127.538 15.992C126.914 15.528 126.298 15.296 125.69 15.296C125.402 15.296 125.13 15.352 124.874 15.464C124.634 15.56 124.338 15.704 123.986 15.896C123.586 16.152 123.29 16.28 123.098 16.28C123.018 16.28 122.946 16.256 122.882 16.208C122.834 16.144 122.81 16.072 122.81 15.992C122.81 15.352 123.09 14.856 123.65 14.504C124.226 14.152 124.922 13.992 125.738 14.024C126.858 14.088 127.882 14.568 128.81 15.464C129.738 16.344 130.466 17.44 130.994 18.752C131.538 20.064 131.81 21.352 131.81 22.616C131.81 22.824 131.794 23.12 131.762 23.504L130.994 23.456C130.386 22.224 129.602 21.352 128.642 20.84C127.698 20.312 126.746 20.048 125.786 20.048C124.554 20.048 123.674 20.232 123.146 20.6C122.618 20.968 122.354 21.504 122.354 22.208C122.354 22.944 122.722 23.536 123.458 23.984C124.194 24.432 125.138 24.656 126.29 24.656C126.93 24.656 127.442 24.624 127.826 24.56C128.21 24.48 128.61 24.376 129.026 24.248C129.362 24.136 129.658 24.056 129.914 24.008C130.17 23.96 130.498 23.936 130.898 23.936C131.346 23.936 131.626 23.968 131.738 24.032C131.866 24.096 131.93 24.24 131.93 24.464C131.93 24.624 131.602 24.824 130.946 25.064C130.29 25.304 129.554 25.52 128.738 25.712C127.922 25.904 127.362 26 127.058 26Z" fill="#2c3e50"/>
<defs>
<clipPath id="clip0">
<rect width="24" height="24" fill="white" transform="translate(14.5 8)"/>
</clipPath>
</defs>
</svg>
